HIERARCHY
ROOT Hips
{
	OFFSET 0.000000 87.230942 0.000000
	CHANNELS 6 Xposition Yposition Zposition Xrotation Yrotation Zrotation
	JOINT Pelvis
	{
		OFFSET 0.000000 0.000000 0.000000
		CHANNELS 3 Xrotation Yrotation Zrotation
		JOINT LeftUpLeg
		{
			OFFSET 12.017000 -9.376404 -2.439400
			CHANNELS 3 Xrotation Yrotation Zrotation
			JOINT LeftLeg
			{
				OFFSET -0.007312 -32.846973 2.110600
				CHANNELS 3 Xrotation Yrotation Zrotation
				JOINT LeftFoot
				{
					OFFSET 0.007312 -32.065170 -0.570400
					CHANNELS 3 Xrotation Yrotation Zrotation
					JOINT LeftToeBase
					{
						OFFSET 0.728300 -11.045900 13.180700
						CHANNELS 3 Xrotation Yrotation Zrotation
						End Site
						{
							OFFSET 0.000000 17.212589 0.000000
						}
					}
				}
				JOINT LeftPantLeg
				{
					OFFSET 0.002788 -16.709013 -3.143600
					CHANNELS 3 Xrotation Yrotation Zrotation
					End Site
					{
						OFFSET -0.605125 24.528742 0.000000
					}
				}
			}
			JOINT Left_Butt
			{
				OFFSET -6.630234 1.326584 -3.183700
				CHANNELS 3 Xrotation Yrotation Zrotation
				End Site
				{
					OFFSET -0.498041 20.188049 0.000000
				}
			}
		}
		JOINT RightUpLeg
		{
			OFFSET -11.717000 -9.376404 -2.439400
			CHANNELS 3 Xrotation Yrotation Zrotation
			JOINT RightLeg
			{
				OFFSET -0.003241 -32.846912 2.110600
				CHANNELS 3 Xrotation Yrotation Zrotation
				JOINT RightFoot
				{
					OFFSET 0.003241 -32.065136 -0.570500
					CHANNELS 3 Xrotation Yrotation Zrotation
					JOINT RightToeBase
					{
						OFFSET -0.728300 -11.045901 13.180700
						CHANNELS 3 Xrotation Yrotation Zrotation
						End Site
						{
							OFFSET 0.000000 17.212593 0.000000
						}
					}
				}
				JOINT RightPantLeg
				{
					OFFSET 0.008142 -16.708982 -3.143700
					CHANNELS 3 Xrotation Yrotation Zrotation
					End Site
					{
						OFFSET 0.605088 24.528715 0.000000
					}
				}
			}
			JOINT Right_Butt
			{
				OFFSET 6.630732 1.326584 -3.183700
				CHANNELS 3 Xrotation Yrotation Zrotation
				End Site
				{
					OFFSET 0.498015 20.188240 0.000000
				}
			}
		}
	}
	JOINT Spine
	{
		OFFSET -0.062400 7.848404 3.918300
		CHANNELS 3 Xrotation Yrotation Zrotation
		JOINT Spine1
		{
			OFFSET -0.072800 11.422302 0.713400
			CHANNELS 3 Xrotation Yrotation Zrotation
			JOINT Spine2
			{
				OFFSET -0.083200 13.054001 -1.931600
				CHANNELS 3 Xrotation Yrotation Zrotation
				JOINT Neck
				{
					OFFSET -0.092200 14.121796 -5.138800
					CHANNELS 3 Xrotation Yrotation Zrotation
					JOINT Head
					{
						OFFSET 0.000200 10.447403 -0.842000
						CHANNELS 3 Xrotation Yrotation Zrotation
						JOINT Visor
						{
							OFFSET 0.457100 25.671204 16.550400
							CHANNELS 3 Xrotation Yrotation Zrotation
							End Site
							{
								OFFSET 0.000000 26.061493 0.000000
							}
						}
						JOINT HairMidA
						{
							OFFSET 0.459400 31.585403 8.437400
							CHANNELS 3 Xrotation Yrotation Zrotation
							End Site
							{
								OFFSET 0.000000 26.061493 0.000000
							}
						}
						JOINT HairMidB
						{
							OFFSET 0.464000 33.309204 -8.389700
							CHANNELS 3 Xrotation Yrotation Zrotation
							End Site
							{
								OFFSET 0.000000 26.061493 0.000000
							}
						}
						JOINT HairMidC
						{
							OFFSET 0.466600 27.991196 -17.375099
							CHANNELS 3 Xrotation Yrotation Zrotation
							End Site
							{
								OFFSET 0.000000 26.061493 0.000000
							}
						}
						JOINT HairMidD
						{
							OFFSET 0.467700 17.888092 -21.169500
							CHANNELS 3 Xrotation Yrotation Zrotation
							End Site
							{
								OFFSET 0.000000 26.061493 0.000000
							}
						}
						JOINT HairMidE
						{
							OFFSET 5.325700 3.514603 -14.369699
							CHANNELS 3 Xrotation Yrotation Zrotation
							End Site
							{
								OFFSET 0.000000 26.061493 0.000000
							}
						}
						JOINT HairMidF
						{
							OFFSET -4.394100 3.514603 -14.372400
							CHANNELS 3 Xrotation Yrotation Zrotation
							End Site
							{
								OFFSET 0.000000 26.061493 0.000000
							}
						}
						JOINT HairLeftA
						{
							OFFSET 15.319900 25.746506 2.623300
							CHANNELS 3 Xrotation Yrotation Zrotation
							End Site
							{
								OFFSET 0.000000 26.061493 0.000000
							}
						}
						JOINT HairLeftB
						{
							OFFSET 12.619500 29.289398 -8.731499
							CHANNELS 3 Xrotation Yrotation Zrotation
							End Site
							{
								OFFSET 0.000000 26.061493 0.000000
							}
						}
						JOINT HairLeftC
						{
							OFFSET 15.714800 15.959900 2.909800
							CHANNELS 3 Xrotation Yrotation Zrotation
							End Site
							{
								OFFSET 0.000000 26.061493 0.000000
							}
						}
						JOINT HairLeftD
						{
							OFFSET 16.101700 18.437408 -7.553200
							CHANNELS 3 Xrotation Yrotation Zrotation
							End Site
							{
								OFFSET 0.000000 26.061493 0.000000
							}
						}
						JOINT HairLeftE
						{
							OFFSET 9.731900 17.915009 -18.316799
							CHANNELS 3 Xrotation Yrotation Zrotation
							End Site
							{
								OFFSET 0.000000 26.061493 0.000000
							}
						}
						JOINT HairLeftF
						{
							OFFSET 11.204300 4.953598 -9.668100
							CHANNELS 3 Xrotation Yrotation Zrotation
							End Site
							{
								OFFSET 0.000000 26.061493 0.000000
							}
						}
						JOINT HairRightA
						{
							OFFSET -14.397900 25.746307 2.615100
							CHANNELS 3 Xrotation Yrotation Zrotation
							End Site
							{
								OFFSET 0.000000 26.061493 0.000000
							}
						}
						JOINT HairRightB
						{
							OFFSET -11.691200 29.289200 -8.738199
							CHANNELS 3 Xrotation Yrotation Zrotation
							End Site
							{
								OFFSET 0.000000 26.061493 0.000000
							}
						}
						JOINT HairRightC
						{
							OFFSET -14.792900 15.959702 2.901400
							CHANNELS 3 Xrotation Yrotation Zrotation
							End Site
							{
								OFFSET 0.000000 26.061493 0.000000
							}
						}
						JOINT HairRightD
						{
							OFFSET -15.174000 18.437195 -7.561900
							CHANNELS 3 Xrotation Yrotation Zrotation
							End Site
							{
								OFFSET 0.000000 26.061493 0.000000
							}
						}
						JOINT HairRightE
						{
							OFFSET -8.798200 17.914902 -18.322001
							CHANNELS 3 Xrotation Yrotation Zrotation
							End Site
							{
								OFFSET 0.000000 26.061493 0.000000
							}
						}
						JOINT HairRightF
						{
							OFFSET -10.275200 4.953506 -9.674099
							CHANNELS 3 Xrotation Yrotation Zrotation
							End Site
							{
								OFFSET 0.000000 26.061493 0.000000
							}
						}
					}
				}
				JOINT LeftShoulder
				{
					OFFSET 5.133500 7.341202 -1.867600
					CHANNELS 3 Xrotation Yrotation Zrotation
					JOINT LeftArm
					{
						OFFSET 8.072663 0.936867 -2.176600
						CHANNELS 3 Xrotation Yrotation Zrotation
						JOINT LeftForeArm
						{
							OFFSET 31.271999 0.000000 0.000000
							CHANNELS 3 Xrotation Yrotation Zrotation
							JOINT LeftHand
							{
								OFFSET 31.771030 0.000000 0.000000
								CHANNELS 3 Xrotation Yrotation Zrotation
								JOINT LeftHandThumb1
								{
									OFFSET 2.886520 -2.557846 4.416640
									CHANNELS 3 Xrotation Yrotation Zrotation
									JOINT LeftHandThumb2
									{
										OFFSET 2.371025 -1.368912 1.368911
										CHANNELS 3 Xrotation Yrotation Zrotation
										JOINT LeftHandThumb3
										{
											OFFSET 2.243378 -1.295212 1.295213
											CHANNELS 3 Xrotation Yrotation Zrotation
											End Site
											{
												OFFSET -0.332611 2.876945 0.020015
											}
										}
									}
								}
								JOINT LeftHandIndex1
								{
									OFFSET 8.568985 -0.641945 3.119977
									CHANNELS 3 Xrotation Yrotation Zrotation
									JOINT LeftHandIndex2
									{
										OFFSET 3.348503 0.000000 0.000000
										CHANNELS 3 Xrotation Yrotation Zrotation
										JOINT LeftHandIndex3
										{
											OFFSET 3.314552 0.000000 0.000000
											CHANNELS 3 Xrotation Yrotation Zrotation
											End Site
											{
												OFFSET -1.032898 3.075485 0.678796
											}
										}
									}
								}
								JOINT LeftHandMiddle1
								{
									OFFSET 8.124603 0.000000 0.000000
									CHANNELS 3 Xrotation Yrotation Zrotation
									JOINT LeftHandMiddle2
									{
										OFFSET 4.166275 0.000000 0.000000
										CHANNELS 3 Xrotation Yrotation Zrotation
										JOINT LeftHandMiddle3
										{
											OFFSET 3.018135 0.000000 0.000000
											CHANNELS 3 Xrotation Yrotation Zrotation
											End Site
											{
												OFFSET -1.032700 2.767982 0.617226
											}
										}
									}
								}
								JOINT LeftHandRing1
								{
									OFFSET 8.571686 -0.031357 -2.884048
									CHANNELS 3 Xrotation Yrotation Zrotation
									JOINT LeftHandRing2
									{
										OFFSET 3.671181 0.000000 0.000000
										CHANNELS 3 Xrotation Yrotation Zrotation
										JOINT LeftHandRing3
										{
											OFFSET 2.728851 0.000000 0.000000
											CHANNELS 3 Xrotation Yrotation Zrotation
											End Site
											{
												OFFSET -0.815796 2.539223 0.577389
											}
										}
									}
								}
								JOINT LeftHandPinky1
								{
									OFFSET 7.854515 -0.675232 -5.213020
									CHANNELS 3 Xrotation Yrotation Zrotation
									JOINT LeftHandPinky2
									{
										OFFSET 3.068596 0.000000 0.000000
										CHANNELS 3 Xrotation Yrotation Zrotation
										JOINT LeftHandPinky3
										{
											OFFSET 2.396042 0.000000 0.000000
											CHANNELS 3 Xrotation Yrotation Zrotation
											End Site
											{
												OFFSET -0.524597 2.267998 0.567429
											}
										}
									}
								}
							}
							JOINT LeftSleeve
							{
								OFFSET 19.684509 -0.200119 0.476146
								CHANNELS 3 Xrotation Yrotation Zrotation
								End Site
								{
									OFFSET -0.031017 25.731133 -0.002868
								}
							}
						}
					}
				}
				JOINT RightShoulder
				{
					OFFSET -4.395900 7.341202 -1.870200
					CHANNELS 3 Xrotation Yrotation Zrotation
					JOINT RightArm
					{
						OFFSET -8.071453 0.936867 -2.181100
						CHANNELS 3 Xrotation Yrotation Zrotation
						JOINT RightForeArm
						{
							OFFSET -31.272011 0.000000 0.000000
							CHANNELS 3 Xrotation Yrotation Zrotation
							JOINT RightHand
							{
								OFFSET -31.771019 0.000000 0.000000
								CHANNELS 3 Xrotation Yrotation Zrotation
								JOINT RightHandThumb1
								{
									OFFSET -2.886520 -2.557808 4.416626
									CHANNELS 3 Xrotation Yrotation Zrotation
									JOINT RightHandThumb2
									{
										OFFSET -2.371056 -1.368927 1.368928
										CHANNELS 3 Xrotation Yrotation Zrotation
										JOINT RightHandThumb3
										{
											OFFSET -2.243362 -1.295204 1.295206
											CHANNELS 3 Xrotation Yrotation Zrotation
											End Site
											{
												OFFSET 0.332642 2.876938 0.020047
											}
										}
									}
								}
								JOINT RightHandIndex1
								{
									OFFSET -8.568993 -0.641953 3.120017
									CHANNELS 3 Xrotation Yrotation Zrotation
									JOINT RightHandIndex2
									{
										OFFSET -3.348518 0.000000 0.000000
										CHANNELS 3 Xrotation Yrotation Zrotation
										JOINT RightHandIndex3
										{
											OFFSET -3.314552 0.000000 0.000000
											CHANNELS 3 Xrotation Yrotation Zrotation
											End Site
											{
												OFFSET 1.032898 3.075478 0.678804
											}
										}
									}
								}
								JOINT RightHandMiddle1
								{
									OFFSET -8.124588 0.000000 0.000000
									CHANNELS 3 Xrotation Yrotation Zrotation
									JOINT RightHandMiddle2
									{
										OFFSET -4.166275 0.000000 0.000000
										CHANNELS 3 Xrotation Yrotation Zrotation
										JOINT RightHandMiddle3
										{
											OFFSET -3.018097 0.000000 0.000000
											CHANNELS 3 Xrotation Yrotation Zrotation
											End Site
											{
												OFFSET 1.032700 2.767937 0.617197
											}
										}
									}
								}
								JOINT RightHandRing1
								{
									OFFSET -8.571747 -0.031349 -2.884061
									CHANNELS 3 Xrotation Yrotation Zrotation
									JOINT RightHandRing2
									{
										OFFSET -3.671204 0.000000 0.000000
										CHANNELS 3 Xrotation Yrotation Zrotation
										JOINT RightHandRing3
										{
											OFFSET -2.728874 0.000000 0.000000
											CHANNELS 3 Xrotation Yrotation Zrotation
											End Site
											{
												OFFSET 0.815804 2.539261 0.577413
											}
										}
									}
								}
								JOINT RightHandPinky1
								{
									OFFSET -7.854561 -0.675247 -5.212970
									CHANNELS 3 Xrotation Yrotation Zrotation
									JOINT RightHandPinky2
									{
										OFFSET -3.068550 0.000000 0.000000
										CHANNELS 3 Xrotation Yrotation Zrotation
										JOINT RightHandPinky3
										{
											OFFSET -2.395981 0.000000 0.000000
											CHANNELS 3 Xrotation Yrotation Zrotation
											End Site
											{
												OFFSET 0.524605 2.267952 0.567413
											}
										}
									}
								}
							}
							JOINT RightSleeve
							{
								OFFSET -19.684753 -0.200165 0.476065
								CHANNELS 3 Xrotation Yrotation Zrotation
								End Site
								{
									OFFSET 0.031342 25.731255 -0.002917
								}
							}
						}
					}
				}
				JOINT Hood
				{
					OFFSET 0.369700 14.447800 -5.317800
					CHANNELS 3 Xrotation Yrotation Zrotation
					JOINT Hood1
					{
						OFFSET 0.001700 -5.553802 -5.895100
						CHANNELS 3 Xrotation Yrotation Zrotation
						JOINT Hood2
						{
							OFFSET -0.000200 -8.380501 0.763600
							CHANNELS 3 Xrotation Yrotation Zrotation
							End Site
							{
								OFFSET 0.000000 8.415215 0.000000
							}
						}
					}
				}
				JOINT Left_Breast
				{
					OFFSET 5.682500 3.120102 3.188800
					CHANNELS 3 Xrotation Yrotation Zrotation
					End Site
					{
						OFFSET 0.000000 10.528564 0.000000
					}
				}
				JOINT Right_Breast
				{
					OFFSET -4.947600 3.120102 3.185900
					CHANNELS 3 Xrotation Yrotation Zrotation
					End Site
					{
						OFFSET 0.000000 10.528564 0.000000
					}
				}
				JOINT Whistle
				{
					OFFSET 0.368200 11.471298 0.095400
					CHANNELS 3 Xrotation Yrotation Zrotation
					JOINT Whistle1
					{
						OFFSET -0.002000 -6.349899 7.479800
						CHANNELS 3 Xrotation Yrotation Zrotation
						JOINT Whistle2
						{
							OFFSET -0.001300 -8.217598 4.717600
							CHANNELS 3 Xrotation Yrotation Zrotation
							End Site
							{
								OFFSET 0.000000 9.475479 0.000000
							}
						}
					}
				}
			}
		}
		JOINT Belly
		{
			OFFSET 0.212400 1.593002 3.163700
			CHANNELS 3 Xrotation Yrotation Zrotation
			End Site
			{
				OFFSET 0.000000 7.496635 0.000000
			}
		}
	}
	JOINT FitGrandmaFacialAnim_Joint
	{
		OFFSET 1.150000 -86.211197 -1.220100
		CHANNELS 3 Xrotation Yrotation Zrotation
		End Site
		{
			OFFSET 0.000000 31.666618 0.000000
		}
	}
}
MOTION
Frames: 4
Frame Time: 0.016667
-1.464976 73.986580 0.611911 -5.398600 -46.174015 -0.123091 0.000000 -0.000000 0.000000 -29.900987 7.890962 18.569881 60.352364 -7.610545 4.290970 -27.983679 -7.405193 -15.180719 0.000000 0.000002 0.000000 -0.000001 -0.000000 0.000001 -0.000000 -0.000001 -0.000000 -20.174166 -12.692060 -28.864578 60.076828 -8.146403 -7.760912 -31.735668 -8.093323 23.747183 -0.000000 0.000000 -0.000000 -0.000001 0.000002 0.000002 0.000003 0.000001 0.000001 9.465709 7.114902 -1.724208 2.187716 0.989899 -0.915631 2.202827 0.982777 -0.894153 0.084654 13.220555 4.538682 8.920925 20.138143 -4.130234 0.000000 -0.000000 -0.000001 0.000000 -0.000000 -0.000001 0.000000 -0.000000 -0.000001 0.000000 -0.000000 -0.000001 0.000000 -0.000000 -0.000001 0.000000 -0.000000 -0.000001 0.000000 -0.000000 -0.000001 0.000000 -0.000000 -0.000001 0.000000 -0.000000 -0.000001 0.000000 -0.000000 -0.000001 0.000000 -0.000000 -0.000001 0.000000 -0.000000 -0.000001 0.000000 -0.000000 -0.000001 0.000000 -0.000000 -0.000001 0.000000 -0.000000 -0.000001 0.000000 -0.000000 -0.000001 0.000000 -0.000000 -0.000001 0.000000 -0.000000 -0.000001 0.000000 -0.000000 -0.000001 1.117179 3.546345 -8.633309 -53.487017 4.935526 -51.502994 0.000146 -106.358073 0.000156 1.988607 -7.706155 -15.869250 -6.141234 -11.690799 -6.761702 9.914118 42.595512 3.409860 -0.000001 0.000002 0.000005 0.255308 3.378197 -45.814344 5.654071 5.847733 -88.067448 0.000002 -0.000000 0.000002 -0.461478 3.841587 -39.722697 6.450733 5.820342 -95.892871 0.000003 -0.000002 -0.000002 0.469722 4.966832 -39.799437 8.181077 5.368655 -113.503004 0.000002 -0.000001 0.000000 -3.762439 9.063699 -45.253821 5.342503 5.828984 -85.005311 0.000000 0.000001 0.000000 -0.000000 -0.000001 -0.000001 3.036129 13.027197 -5.371408 -48.713712 27.172818 83.457084 0.000238 105.988287 -0.000254 -8.345369 17.548086 8.775674 -7.341092 13.749661 7.412356 9.855726 -44.489096 -3.903293 0.000003 -0.000004 -0.000001 -0.124382 -2.384775 45.108874 4.500604 -4.654568 88.071157 0.000001 0.000002 0.000003 -0.761629 -2.932901 39.031061 5.133882 -4.632756 95.881656 0.000002 -0.000000 0.000002 0.154760 -4.068821 39.122682 6.509727 -4.273608 113.462857 0.000000 -0.000003 0.000002 -4.198867 -8.025537 44.637783 4.252897 -4.639596 85.014825 0.000000 -0.000001 0.000002 0.000000 -0.000001 -0.000002 0.000000 -0.000002 0.000000 0.000000 -0.000002 0.000000 0.000000 -0.000002 0.000000 0.000000 -0.000002 0.000000 0.000000 -0.000002 0.000000 0.000000 -0.000002 0.000000 -0.000000 -0.000000 -0.000000 -0.000000 -0.000000 -0.000000 0.000000 0.000004 -0.000000 0.000000 -0.000000 0.000000 
-1.410811 73.717384 1.050102 -5.081693 -46.455033 0.104281 0.000000 -0.000001 0.000000 -30.312414 7.792261 18.362205 61.672817 -7.467982 4.191314 -28.805312 -6.911169 -14.815809 0.000000 0.000002 0.000000 0.000002 0.000000 -0.000000 -0.000000 0.000002 0.000000 -20.626010 -12.505889 -29.462038 60.531896 -7.298481 -7.705487 -31.912478 -8.441030 23.731574 -0.000000 0.000000 0.000000 0.000002 -0.000001 0.000001 0.000002 0.000000 -0.000001 9.690368 7.249486 -2.045829 2.062174 1.010598 -0.893727 2.076817 1.004103 -0.874001 0.115998 13.237022 4.673038 8.696457 20.175026 -3.730638 -0.000000 0.000000 -0.000001 -0.000000 0.000000 -0.000001 -0.000000 0.000000 -0.000001 -0.000000 0.000000 -0.000001 -0.000000 0.000000 -0.000001 -0.000000 0.000000 -0.000001 -0.000000 0.000000 -0.000001 -0.000000 0.000000 -0.000001 -0.000000 0.000000 -0.000001 -0.000000 0.000000 -0.000001 -0.000000 0.000000 -0.000001 -0.000000 0.000000 -0.000001 -0.000000 0.000000 -0.000001 -0.000000 0.000000 -0.000001 -0.000000 0.000000 -0.000001 -0.000000 0.000000 -0.000001 -0.000000 0.000000 -0.000001 -0.000000 0.000000 -0.000001 -0.000000 0.000000 -0.000001 1.112658 3.581119 -8.635982 -53.210678 4.972784 -51.357251 0.000079 -106.367731 0.000089 2.411222 -7.507507 -16.196289 -6.141237 -11.690800 -6.761702 9.914123 42.595505 3.409854 -0.000002 0.000002 0.000003 0.255303 3.378195 -45.814344 5.654069 5.847733 -88.067448 0.000000 -0.000001 0.000002 -0.461479 3.841584 -39.722693 6.450737 5.820344 -95.892871 -0.000001 -0.000002 -0.000000 0.469719 4.966831 -39.799437 8.181078 5.368654 -113.503004 0.000002 -0.000001 0.000000 -3.762443 9.063700 -45.253828 5.342504 5.828983 -85.005311 -0.000001 0.000000 -0.000002 -0.000000 0.000000 -0.000003 3.105121 13.142779 -5.328001 -48.727434 27.290294 83.461524 0.000127 105.913742 -0.000104 -8.160904 17.583426 8.793057 -7.341091 13.749660 7.412348 9.855731 -44.489100 -3.903294 -0.000001 0.000001 0.000000 -0.124381 -2.384776 45.108874 4.500600 -4.654566 88.071164 0.000000 0.000002 0.000002 -0.761628 -2.932898 39.031061 5.133884 -4.632753 95.881656 -0.000001 0.000003 -0.000001 0.154764 -4.068823 39.122688 6.509732 -4.273604 113.462857 -0.000000 0.000000 -0.000000 -4.198863 -8.025543 44.637783 4.252895 -4.639600 85.014825 -0.000001 -0.000001 0.000003 0.000001 -0.000000 -0.000002 0.000000 -0.000002 0.000001 0.000000 -0.000002 0.000001 0.000000 -0.000002 0.000001 0.000000 -0.000002 0.000001 0.000000 -0.000002 0.000001 0.000000 -0.000002 0.000001 0.000000 -0.000004 0.000001 0.000000 -0.000004 0.000001 0.000001 -0.000001 -0.000000 0.000000 -0.000001 0.000000 
-1.347784 73.390350 1.516474 -4.839912 -46.831885 0.301228 -0.000000 -0.000001 0.000000 -30.811099 7.690089 18.221567 63.267168 -7.306507 4.049435 -29.570874 -6.552728 -14.471523 0.000000 0.000000 0.000000 0.000003 -0.000003 0.000001 -0.000003 0.000002 -0.000001 -21.180364 -12.316786 -30.169065 61.130398 -6.271308 -7.745143 -32.159888 -8.812405 23.696832 -0.000000 0.000001 0.000000 -0.000002 -0.000004 0.000003 -0.000003 0.000001 0.000000 9.979913 7.380457 -2.306726 1.916819 1.031763 -0.894298 1.931409 1.024997 -0.876844 0.148174 13.275053 4.803503 8.434762 20.259441 -3.299774 0.000000 0.000000 -0.000001 0.000000 0.000000 -0.000001 0.000000 0.000000 -0.000001 0.000000 0.000000 -0.000001 0.000000 0.000000 -0.000001 0.000000 0.000000 -0.000001 0.000000 0.000000 -0.000001 0.000000 0.000000 -0.000001 0.000000 0.000000 -0.000001 0.000000 0.000000 -0.000001 0.000000 0.000000 -0.000001 0.000000 0.000000 -0.000001 0.000000 0.000000 -0.000001 0.000000 0.000000 -0.000001 0.000000 0.000000 -0.000001 0.000000 0.000000 -0.000001 0.000000 0.000000 -0.000001 0.000000 0.000000 -0.000001 0.000000 0.000000 -0.000001 1.110769 3.630401 -8.655380 -52.841769 5.112488 -51.141666 -0.000073 -106.568047 -0.000053 2.622623 -7.353741 -16.403714 -6.141236 -11.690804 -6.761697 9.914120 42.595505 3.409855 0.000000 0.000002 -0.000000 0.255306 3.378197 -45.814337 5.654072 5.847731 -88.067441 0.000002 0.000001 0.000003 -0.461480 3.841586 -39.722686 6.450734 5.820341 -95.892871 -0.000003 -0.000002 -0.000002 0.469723 4.966832 -39.799441 8.181072 5.368655 -113.502998 -0.000000 0.000000 -0.000001 -3.762441 9.063697 -45.253825 5.342501 5.828985 -85.005311 0.000000 -0.000001 0.000002 0.000001 0.000001 0.000000 3.169171 13.274911 -5.296750 -48.735770 27.444494 83.446204 0.000144 105.845741 -0.000167 -7.984262 17.693516 8.782210 -7.341092 13.749657 7.412352 9.855726 -44.489093 -3.903294 0.000002 0.000002 0.000000 -0.124381 -2.384776 45.108868 4.500599 -4.654568 88.071164 0.000000 0.000000 0.000001 -0.761628 -2.932899 39.031061 5.133885 -4.632752 95.881656 0.000001 -0.000001 0.000002 0.154763 -4.068824 39.122685 6.509730 -4.273609 113.462857 -0.000002 0.000000 0.000001 -4.198867 -8.025541 44.637783 4.252896 -4.639595 85.014818 -0.000003 -0.000001 0.000003 -0.000000 -0.000002 0.000002 -0.000000 -0.000000 -0.000000 -0.000000 -0.000000 -0.000000 -0.000000 -0.000000 -0.000000 -0.000000 -0.000000 -0.000000 -0.000000 -0.000000 -0.000000 -0.000000 -0.000000 0.000000 0.000000 -0.000000 0.000000 0.000000 -0.000000 0.000000 -0.000000 0.000000 -0.000000 -0.000000 -0.000001 0.000000 
-1.269631 72.995003 2.021960 -4.724112 -47.283200 0.447116 0.000000 -0.000002 -0.000000 -31.489843 7.462522 18.248457 65.343149 -7.329949 3.892255 -30.197766 -6.197589 -14.790660 0.000000 0.000002 -0.000000 -0.000002 -0.000001 0.000001 0.000000 0.000002 -0.000000 -21.778371 -12.093028 -31.006009 61.878085 -5.083075 -7.885196 -32.484731 -9.218758 23.676615 -0.000000 -0.000000 -0.000000 -0.000002 0.000000 -0.000001 0.000002 -0.000001 -0.000000 10.339811 7.507136 -2.501907 1.751585 1.053340 -0.915971 1.766521 1.045417 -0.901337 0.181825 13.330685 4.930964 8.143635 20.381266 -2.845097 0.000001 0.000000 -0.000001 0.000001 0.000000 -0.000001 0.000001 0.000000 -0.000001 0.000001 0.000000 -0.000001 0.000001 0.000000 -0.000001 0.000001 0.000000 -0.000001 0.000001 0.000000 -0.000001 0.000001 0.000000 -0.000001 0.000001 0.000000 -0.000001 0.000001 0.000000 -0.000001 0.000001 0.000000 -0.000001 0.000001 0.000000 -0.000001 0.000001 0.000000 -0.000001 0.000001 0.000000 -0.000001 0.000001 0.000000 -0.000001 0.000001 0.000000 -0.000001 0.000001 0.000000 -0.000001 0.000001 0.000000 -0.000001 0.000001 0.000000 -0.000001 1.111786 3.693835 -8.692152 -52.361695 5.340827 -50.878298 0.000058 -106.890500 0.000069 2.654526 -7.266169 -16.480625 -6.141234 -11.690802 -6.761703 9.914115 42.595508 3.409857 -0.000005 -0.000003 0.000003 0.255304 3.378196 -45.814337 5.654071 5.847731 -88.067448 -0.000001 0.000002 0.000003 -0.461478 3.841583 -39.722693 6.450732 5.820344 -95.892871 -0.000001 -0.000002 -0.000000 0.469722 4.966831 -39.799437 8.181076 5.368653 -113.503004 0.000001 0.000000 0.000000 -3.762440 9.063698 -45.253825 5.342504 5.828983 -85.005311 -0.000001 0.000001 0.000002 -0.000000 0.000001 -0.000001 3.224296 13.415406 -5.279438 -48.718162 27.637153 83.417578 0.000209 105.772248 -0.000205 -7.808812 17.876210 8.743090 -7.341092 13.749659 7.412355 9.855727 -44.489089 -3.903292 -0.000002 0.000002 -0.000002 -0.124381 -2.384775 45.108874 4.500601 -4.654565 88.071164 0.000000 0.000001 0.000003 -0.761629 -2.932897 39.031061 5.133884 -4.632758 95.881663 -0.000000 -0.000004 0.000001 0.154761 -4.068823 39.122685 6.509730 -4.273608 113.462863 0.000001 -0.000002 0.000003 -4.198865 -8.025541 44.637789 4.252895 -4.639601 85.014818 -0.000001 0.000001 0.000002 0.000000 0.000001 -0.000000 0.000000 -0.000001 0.000000 0.000000 -0.000001 0.000000 0.000000 -0.000001 0.000000 0.000000 -0.000001 0.000000 0.000000 -0.000001 0.000000 0.000000 -0.000001 0.000000 0.000000 -0.000001 0.000000 0.000000 -0.000001 0.000000 -0.000000 0.000002 -0.000000 0.000000 -0.000002 -0.000000 
